<?xml version="1.0" standalone="no"?>
<!DOCTYPE svg PUBLIC "-//W3C//DTD SVG 1.1//EN" "http://www.w3.org/Graphics/SVG/1.1/DTD/svg11.dtd" >
<svg xmlns="http://www.w3.org/2000/svg">
<metadata></metadata>
<defs>
<font id="geddesregular" horiz-adv-x="1050" >
<font-face units-per-em="2048" ascent="1638" descent="-410" />
<missing-glyph horiz-adv-x="900" />
<glyph horiz-adv-x="2048" />
<glyph horiz-adv-x="2048" />
<glyph unicode="&#xd;" horiz-adv-x="508" />
<glyph unicode=" "  horiz-adv-x="900" />
<glyph unicode="&#x09;" horiz-adv-x="900" />
<glyph unicode="&#xa0;" horiz-adv-x="900" />
<glyph unicode="!" horiz-adv-x="300" d="M-25 100q0 41 29.5 70.5t70.5 29.5t70.5 -29.5t29.5 -70.5t-29.5 -70.5t-70.5 -29.5t-70.5 29.5t-29.5 70.5zM0 350v1200h150v-1200h-150z" />
<glyph unicode="&#x22;" horiz-adv-x="575" d="M-100 1175l100 375l175 -50l-175 -375zM175 1175l100 375l175 -50l-175 -375z" />
<glyph unicode="#" horiz-adv-x="1350" d="M0 450v150h300v300h-300v150h300v300h150v-300h300v300h150v-300h300v-150h-300v-300h300v-150h-300v-300h-150v300h-300v-300h-150v300h-300zM450 600h300v300h-300v-300z" />
<glyph unicode="$" horiz-adv-x="1225" d="M6 381l120 120q11 -98 116 -170q99 -69 233 -79v450q-114 7 -196.5 37t-108.5 53q-145 108 -145 283q0 162 147 269q128 93 303 104v102h150v-108q144 -23 254 -116q81 -70 117 -155l-122 -122q-10 99 -101 171q-66 51 -148 69v-447q85 -12 166.5 -39t124.5 -60 q159 -118 159 -268t-161 -262q-124 -87 -289 -107v-106h-150v102q-196 12 -339 123q-91 70 -130 156zM175 1075q0 -113 103 -169q84 -46 197 -54v446q-113 -9 -197 -60q-103 -63 -103 -163zM625 257q103 15 183 62q117 68 117 156t-117 157q-80 46 -183 61v-436z" />
<glyph unicode="%" horiz-adv-x="1650" d="M0 1100q0 186 110 318t265 132t265 -132t110 -318t-110 -318t-265 -132t-265 132t-110 318zM150 1100q0 -124 66 -212t159 -88t159 88t66 212t-66 212t-159 88t-159 -88t-66 -212zM200 0l900 1550h200l-900 -1550h-200zM750 450q0 186 110 318t265 132t265 -132t110 -318 t-110 -318t-265 -132t-265 132t-110 318zM900 450q0 -124 66 -212t159 -88t159 88t66 212t-66 212t-159 88t-159 -88t-66 -212z" />
<glyph unicode="&#x26;" horiz-adv-x="1250" d="M0 425q0 176 117 301q26 27 55 49q-29 22 -55 50q-117 124 -117 300t117 300.5t283 124.5t283 -124.5t117 -300.5t-117 -300q-26 -28 -55 -50q29 -22 55 -49q71 -75 98 -169l144 243h175l-281 -475q22 -52 69 -94q88 -81 212 -81v-150q-186 0 -318 125q-30 27 -52 58 q-21 -31 -47 -58q-117 -125 -283 -125t-283 124.5t-117 300.5zM150 425q0 -114 73 -194.5t177 -80.5t177 80.5t73 194.5t-73 194.5t-177 80.5t-177 -80.5t-73 -194.5zM150 1125q0 -114 73 -194.5t177 -80.5t177 80.5t73 194.5t-73 194.5t-177 80.5t-177 -80.5t-73 -194.5z " />
<glyph unicode="'" horiz-adv-x="300" d="M-100 1175l100 375l175 -50l-175 -375z" />
<glyph unicode="(" horiz-adv-x="950" d="M0 775q0 445 227 760t548 315h25v-151q-12 1 -25 1q-259 0 -442 -271t-183 -654t183 -654t442 -271q13 0 25 1v-151h-25q-321 0 -548 315t-227 760z" />
<glyph unicode=")" horiz-adv-x="950" d="M0 -149q12 -1 25 -1q259 0 442 271t183 654t-183 654t-442 271q-13 0 -25 -1v151h25q321 0 548 -315t227 -760t-227 -760t-548 -315h-25v151z" />
<glyph unicode="*" horiz-adv-x="1100" d="M0 1100v150h317l-242 300h175l225 -279l225 279h175l-242 -300h317v-150h-337l262 -325h-175l-225 279l-225 -279h-175l262 325h-337z" />
<glyph unicode="+" horiz-adv-x="1100" d="M0 700v150h400v400h150v-400h400v-150h-400v-400h-150v400h-400z" />
<glyph unicode="," horiz-adv-x="300" d="M-100 -175l100 375l175 -50l-175 -375z" />
<glyph unicode="-" horiz-adv-x="1100" d="M0 700v150h950v-150h-950z" />
<glyph unicode="." horiz-adv-x="300" d="M-25 100q0 41 29.5 70.5t70.5 29.5t70.5 -29.5t29.5 -70.5t-29.5 -70.5t-70.5 -29.5t-70.5 29.5t-29.5 70.5z" />
<glyph unicode="/" horiz-adv-x="1250" d="M0 0l900 1550h200l-900 -1550h-200z" />
<glyph unicode="0" horiz-adv-x="1400" d="M0 775q0 321 183 548t442 227t442 -227t183 -548t-183 -548t-442 -227t-442 227t-183 548zM150 775q0 -259 139 -442t336 -183t336 183t139 442t-139 442t-336 183t-336 -183t-139 -442z" />
<glyph unicode="1" horiz-adv-x="450" d="M0 1400v150h300v-1550h-150v1400h-150z" />
<glyph unicode="2" horiz-adv-x="1225" d="M-1 0q676 775 776 893t100 232t-102.5 194.5t-247.5 80.5t-247 -80q-21 -17 -38 -35l-105 106q17 18 37 35q146 124 353 124t353.5 -124.5t146.5 -300.5t-151 -350l-544 -625h745v-150h-1076z" />
<glyph unicode="3" horiz-adv-x="1225" d="M6 281l120 120q12 -98 116 -170q117 -81 283 -81t283 80.5t117 194.5t-117 194.5t-283 80.5v150q145 0 247.5 80.5t102.5 194.5t-102.5 194.5t-247.5 80.5t-247 -80q-21 -17 -38 -35l-105 106q17 18 37 35q146 124 353 124t353.5 -124.5t146.5 -300.5t-146 -300 q-27 -23 -56 -42q48 -24 91 -57q161 -125 161 -301t-161 -300.5t-389 -124.5t-389 125q-90 70 -130 156z" />
<glyph unicode="4" horiz-adv-x="1225" d="M0 350l950 1200v-1050h150v-150h-150v-350h-150v350h-800zM325 500h475v625z" />
<glyph unicode="5" horiz-adv-x="1200" d="M0 300h6l112 112q25 -90 105 -159q117 -103 283 -103t283 102.5t117 247.5t-117 247.5t-283 102.5q-116 0 -208 -50h-233l216 750h775v-150h-650l-125 -450q125 50 225 50q228 0 389 -146.5t161 -353.5t-161 -353.5t-389 -146.5t-389 147q-77 69 -117 153z" />
<glyph unicode="6" horiz-adv-x="1250" d="M0 500q0 186 129 323l546 727h175l-421 -561q58 11 121 11q228 0 389 -146.5t161 -353.5t-161 -353.5t-389 -146.5t-389 146.5t-161 353.5zM150 500q0 -145 117 -247.5t283 -102.5t283 102.5t117 247.5t-117 247.5t-283 102.5t-283 -102.5t-117 -247.5z" />
<glyph unicode="7" horiz-adv-x="1225" d="M0 1400v150h1075l-625 -1550h-175l565 1400h-840z" />
<glyph unicode="8" horiz-adv-x="1250" d="M0 425q0 176 161 301q43 33 91 57q-29 19 -55 42q-147 124 -147 300t146.5 300.5t353.5 124.5t353.5 -124.5t146.5 -300.5t-146 -300q-27 -23 -56 -42q48 -24 91 -57q161 -125 161 -301t-161 -300.5t-389 -124.5t-389 124.5t-161 300.5zM150 425q0 -114 117 -194.5 t283 -80.5t283 80.5t117 194.5t-117 194.5t-283 80.5t-283 -80.5t-117 -194.5zM200 1125q0 -114 102.5 -194.5t247.5 -80.5t247.5 80.5t102.5 194.5t-102.5 194.5t-247.5 80.5t-247.5 -80.5t-102.5 -194.5z" />
<glyph unicode="9" horiz-adv-x="1250" d="M0 1050q0 207 161 353.5t389 146.5t389 -146.5t161 -353.5q0 -186 -129 -323l-546 -727h-175l421 561q-58 -11 -121 -11q-228 0 -389 146.5t-161 353.5zM150 1050q0 -145 117 -247.5t283 -102.5t283 102.5t117 247.5t-117 247.5t-283 102.5t-283 -102.5t-117 -247.5z" />
<glyph unicode=":" horiz-adv-x="300" d="M-25 100q0 41 29.5 70.5t70.5 29.5t70.5 -29.5t29.5 -70.5t-29.5 -70.5t-70.5 -29.5t-70.5 29.5t-29.5 70.5zM-25 750q0 41 29.5 70.5t70.5 29.5t70.5 -29.5t29.5 -70.5t-29.5 -70.5t-70.5 -29.5t-70.5 29.5t-29.5 70.5z" />
<glyph unicode=";" horiz-adv-x="300" d="M-100 -175l100 375l175 -50l-175 -375zM-25 750q0 41 29.5 70.5t70.5 29.5t70.5 -29.5t29.5 -70.5t-29.5 -70.5t-70.5 -29.5t-70.5 29.5t-29.5 70.5z" />
<glyph unicode="&#x3c;" horiz-adv-x="1100" d="M0 775l950 475v-150l-650 -325l650 -325v-150z" />
<glyph unicode="=" horiz-adv-x="1100" d="M0 500v150h950v-150h-950zM0 900v150h950v-150h-950z" />
<glyph unicode="&#x3e;" horiz-adv-x="1100" d="M0 300v150l650 325l-650 325v150l950 -475z" />
<glyph unicode="?" d="M10 1391q17 18 37 35q146 124 353 124t353.5 -124.5t146.5 -300.5t-200 -275q-366 -150 -395.5 -179.5t-29.5 -70.5t29.5 -70.5t70.5 -29.5t70.5 29.5t29.5 70.5h150q0 -104 -73 -177t-177 -73t-177 73t-73 177t73 177t377 173q175 61 175 175t-102.5 194.5t-247.5 80.5 t-247 -80q-21 -17 -38 -35zM275 100q0 41 29.5 70.5t70.5 29.5t70.5 -29.5t29.5 -70.5t-29.5 -70.5t-70.5 -29.5t-70.5 29.5t-29.5 70.5z" />
<glyph unicode="@" horiz-adv-x="1700" d="M0 775q0 321 227 548t548 227t548 -227t227 -548q0 -186 -132 -318t-318 -132h-25v115q-127 -115 -300 -115q-186 0 -318 132t-132 318t132 318t318 132q173 0 300 -115v115h134q-181 175 -434 175q-259 0 -442 -183t-183 -442t183 -442t442 -183h625v-150h-625 q-321 0 -548 227t-227 548zM475 775q0 -124 88 -212t212 -88t212 88t88 212t-88 212t-212 88t-212 -88t-88 -212zM1225 501q47 22 87 62q88 88 88 212q0 253 -175 434v-708z" />
<glyph unicode="A" horiz-adv-x="1250" d="M0 0l550 1550l550 -1550h-200l-87 250h-526l-87 -250h-200zM339 400h422l-211 606z" />
<glyph unicode="B" horiz-adv-x="1250" d="M0 0v1550h675q176 0 300.5 -124.5t124.5 -300.5t-124 -300q-28 -28 -59 -50q31 -22 59 -49q124 -125 124 -301t-124.5 -300.5t-300.5 -124.5h-675zM150 150h525q114 0 194.5 80.5t80.5 194.5t-80.5 194.5t-194.5 80.5h-525v-550zM150 850h525q114 0 194.5 80.5 t80.5 194.5t-80.5 194.5t-194.5 80.5h-525v-550z" />
<glyph unicode="C" horiz-adv-x="1450" d="M0 775q0 321 227 548t548 227t548 -227l-106 -106q-183 183 -442 183t-442 -183t-183 -442t183 -442t442 -183t442 183l106 -106q-227 -227 -548 -227t-548 227t-227 548z" />
<glyph unicode="D" horiz-adv-x="1400" d="M0 0v1550h475q321 0 548 -227t227 -548t-227 -548t-548 -227h-475zM150 150h325q259 0 442 183t183 442t-183 442t-442 183h-325v-1250z" />
<glyph unicode="E" horiz-adv-x="1250" d="M0 0v1550h1100v-150h-950v-550h950v-150h-950v-550h950v-150h-1100z" />
<glyph unicode="F" horiz-adv-x="1250" d="M0 0v1550h1100v-150h-950v-550h950v-150h-950v-700h-150z" />
<glyph unicode="G" horiz-adv-x="1500" d="M0 775q0 321 227 548t548 227t548 -227l-106 -106q-183 183 -442 183t-442 -183t-183 -442t183 -442t442 -183q247 0 425 167v383h-450v150h600v-850h-150v125q-187 -125 -425 -125q-321 0 -548 227t-227 548z" />
<glyph unicode="H" horiz-adv-x="1400" d="M0 0v1550h150v-700h950v700h150v-1550h-150v700h-950v-700h-150z" />
<glyph unicode="I" horiz-adv-x="300" d="M0 0v1550h150v-1550h-150z" />
<glyph unicode="J" horiz-adv-x="1000" d="M0 425h150q0 -114 80.5 -194.5t194.5 -80.5t194.5 80.5t80.5 194.5v1125h150v-1125q0 -176 -124.5 -300.5t-300.5 -124.5t-300.5 124.5t-124.5 300.5z" />
<glyph unicode="K" horiz-adv-x="1250" d="M0 0v1550h150v-667l750 667h200l-900 -800l900 -750h-200l-750 625v-625h-150z" />
<glyph unicode="L" horiz-adv-x="1250" d="M0 0v1550h150v-1400h950v-150h-1100z" />
<glyph unicode="M" horiz-adv-x="1550" d="M-25 0l375 1550l350 -1006l350 1006l375 -1550h-175l-226 899l-324 -899l-325 899l-225 -899h-175z" />
<glyph unicode="N" horiz-adv-x="1400" d="M0 0v1550l1100 -1166v1166h150v-1550l-1100 1166v-1166h-150z" />
<glyph unicode="O" horiz-adv-x="1700" d="M0 775q0 321 227 548t548 227t548 -227t227 -548t-227 -548t-548 -227t-548 227t-227 548zM150 775q0 -259 183 -442t442 -183t442 183t183 442t-183 442t-442 183t-442 -183t-183 -442z" />
<glyph unicode="P" horiz-adv-x="1250" d="M0 0v1550h675q176 0 300.5 -124.5t124.5 -300.5t-124.5 -300.5t-300.5 -124.5h-525v-700h-150zM150 850h525q114 0 194.5 80.5t80.5 194.5t-80.5 194.5t-194.5 80.5h-525v-550z" />
<glyph unicode="Q" horiz-adv-x="1700" d="M0 775q0 321 227 548t548 227t548 -227t227 -548t-227 -548l-8 -8l235 -219h-200l-141 131q-190 -131 -434 -131q-321 0 -548 227t-227 548zM150 775q0 -259 183 -442t442 -183q179 0 321 87l-496 463h200l405 -378q6 5 12 11q183 183 183 442t-183 442t-442 183 t-442 -183t-183 -442z" />
<glyph unicode="R" horiz-adv-x="1250" d="M0 0v1550h675q176 0 300.5 -124.5t124.5 -300.5t-124.5 -300.5t-300.5 -124.5h-275l700 -700h-200l-700 700h-50v-700h-150zM150 850h525q114 0 194.5 80.5t80.5 194.5t-80.5 194.5t-194.5 80.5h-525v-550z" />
<glyph unicode="S" horiz-adv-x="1225" d="M6 281l120 120q11 -98 116 -170q117 -81 283 -81t283 80.5t117 194.5t-117 194.5t-283 80.5q-133 0 -298 83q-29 19 -55 42q-147 124 -147 300t146.5 300.5t353.5 124.5t354 -124q81 -70 117 -155l-122 -122q-10 99 -101 171q-103 80 -248 80t-247.5 -80.5t-102.5 -194.5 t102.5 -194.5t247.5 -80.5q108 0 298 -67q48 -24 91 -57q161 -125 161 -301t-161 -300.5t-389 -124.5t-389 125q-91 70 -130 156z" />
<glyph unicode="T" horiz-adv-x="1250" d="M0 1400v150h1100v-150h-475v-1400h-150v1400h-475z" />
<glyph unicode="U" horiz-adv-x="1400" d="M0 625v925h150v-925q0 -197 139 -336t336 -139t336 139t139 336v925h150v-925q0 -259 -183 -442t-442 -183t-442 183t-183 442z" />
<glyph unicode="V" horiz-adv-x="1250" d="M0 1550h200l350 -1006l350 1006h200l-550 -1550z" />
<glyph unicode="W" horiz-adv-x="1950" d="M0 1550h200l350 -1000l350 1000l350 -1000l350 1000h200l-550 -1550l-350 1000l-350 -1000z" />
<glyph unicode="X" horiz-adv-x="1250" d="M0 0l450 775l-450 775h200l350 -603l350 603h200l-450 -775l450 -775h-200l-350 603l-350 -603h-200z" />
<glyph unicode="Y" horiz-adv-x="1250" d="M0 1550h200l350 -603l350 603h200l-475 -825v-725h-150v725z" />
<glyph unicode="Z" horiz-adv-x="1250" d="M0 0l813 1400h-813v150h1100l-813 -1400h813v-150h-1100z" />
<glyph unicode="[" horiz-adv-x="950" d="M0 -300v2150h800v-150h-650v-1850h650v-150h-800z" />
<glyph unicode="\" horiz-adv-x="1250" d="M0 1550h200l900 -1550h-200z" />
<glyph unicode="]" horiz-adv-x="950" d="M0 -150h650v1850h-650v150h800v-2150h-800v150z" />
<glyph unicode="^" horiz-adv-x="800" d="M0 1600l325 350l325 -350h-175l-150 150l-150 -150h-175z" />
<glyph unicode="_" d="M0 0h1050v-150h-1050v150z" />
<glyph unicode="`" horiz-adv-x="600" d="M0 1925h250l200 -325h-150z" />
<glyph unicode="a" d="M0 450q0 186 132 318t318 132q173 0 300 -115v115h150v-900h-150v115q-127 -115 -300 -115q-186 0 -318 132t-132 318zM150 450q0 -124 88 -212t212 -88t212 88t88 212t-88 212t-212 88t-212 -88t-88 -212z" />
<glyph unicode="b" d="M0 0v1550h150v-765q127 115 300 115q186 0 318 -132t132 -318t-132 -318t-318 -132q-173 0 -300 115v-115h-150zM150 450q0 -124 88 -212t212 -88t212 88t88 212t-88 212t-212 88t-212 -88t-88 -212z" />
<glyph unicode="c" horiz-adv-x="925" d="M0 450q0 186 132 318t318 132q185 0 317 -131l-117 -94v-2q-84 77 -200 77q-124 0 -212 -88t-88 -212t88 -212t212 -88q116 0 200 77v-2l117 -94q-132 -131 -317 -131q-186 0 -318 132t-132 318z" />
<glyph unicode="d" d="M0 450q0 186 132 318t318 132q173 0 300 -115v765h150v-1550h-150v115q-127 -115 -300 -115q-186 0 -318 132t-132 318zM150 450q0 -124 88 -212t212 -88t212 88t88 212t-88 212t-212 88t-212 -88t-88 -212z" />
<glyph unicode="e" d="M0 450q0 186 132 318t318 132t318 -132t132 -318q0 -39 -6 -75h-735q19 -77 79 -137q88 -88 212 -88q116 0 200 77v-2l117 -94q-132 -131 -317 -131q-186 0 -318 132t-132 318zM159 525h582q-19 77 -79 137q-88 88 -212 88t-212 -88q-60 -60 -79 -137z" />
<glyph unicode="f" horiz-adv-x="725" d="M0 750v150h200v200q0 186 110 318t265 132v-150q-93 0 -159 -88t-66 -212v-200h200v-150h-200v-750h-150v750h-200z" />
<glyph unicode="g" d="M0 450q0 186 132 318t318 132q173 0 300 -115v115h150v-900q0 -186 -132 -318t-318 -132t-318 132l106 106q88 -88 212 -88t212 88t88 212v115q-127 -115 -300 -115q-186 0 -318 132t-132 318zM150 450q0 -124 88 -212t212 -88t212 88t88 212t-88 212t-212 88t-212 -88 t-88 -212z" />
<glyph unicode="h" d="M0 0v1550h150v-765q127 115 300 115q186 0 318 -132t132 -318v-450h-150v450q0 124 -88 212t-212 88t-212 -88t-88 -212v-450h-150z" />
<glyph unicode="i" horiz-adv-x="300" d="M-25 1325q0 41 29.5 70.5t70.5 29.5t70.5 -29.5t29.5 -70.5t-29.5 -70.5t-70.5 -29.5t-70.5 29.5t-29.5 70.5zM0 0v900h150v-900h-150z" />
<glyph unicode="j" horiz-adv-x="300" d="M-25 1325q0 41 29.5 70.5t70.5 29.5t70.5 -29.5t29.5 -70.5t-29.5 -70.5t-70.5 -29.5t-70.5 29.5t-29.5 70.5zM0 -450v1350h150v-1350h-150z" />
<glyph unicode="k" horiz-adv-x="950" d="M0 0v1550h157v-1025l418 375h200l-444 -400l469 -500h-225l-418 471v-471h-157z" />
<glyph unicode="l" horiz-adv-x="300" d="M0 0v1550h150v-1550h-150z" />
<glyph unicode="m" horiz-adv-x="1500" d="M0 0v900h150v-90q97 90 225 90q155 0 265 -132q19 -23 35 -48q17 26 38 50q112 130 262 130q155 0 265 -132t110 -318v-450h-150v450q0 124 -66 212t-159 88t-159 -88t-66 -212v-450h-150v450q0 124 -66 212t-159 88t-159 -88t-66 -212v-450h-150z" />
<glyph unicode="n" d="M0 0v900h150v-115q127 115 300 115q186 0 318 -132t132 -318v-450h-150v450q0 124 -88 212t-212 88t-212 -88t-88 -212v-450h-150z" />
<glyph unicode="o" d="M0 450q0 186 132 318t318 132t318 -132t132 -318t-132 -318t-318 -132t-318 132t-132 318zM150 450q0 -124 88 -212t212 -88t212 88t88 212t-88 212t-212 88t-212 -88t-88 -212z" />
<glyph unicode="p" d="M0 -450v1350h150v-115q127 115 300 115q186 0 318 -132t132 -318t-132 -318t-318 -132q-173 0 -300 115v-565h-150zM150 450q0 -124 88 -212t212 -88t212 88t88 212t-88 212t-212 88t-212 -88t-88 -212z" />
<glyph unicode="q" d="M0 450q0 186 132 318t318 132q173 0 300 -115v115h150v-1350h-150v565q-127 -115 -300 -115q-186 0 -318 132t-132 318zM150 450q0 -124 88 -212t212 -88t212 88t88 212t-88 212t-212 88t-212 -88t-88 -212z" />
<glyph unicode="r" horiz-adv-x="950" d="M0 0v900h150v-115q127 115 300 115q186 0 318 -132q13 -13 24 -26l-106 -106q-11 13 -24 26q-88 88 -212 88t-212 -88t-88 -212v-450h-150z" />
<glyph unicode="s" horiz-adv-x="825" d="M0 115l103 103q16 -19 48 -35q66 -33 159 -33t146.5 33t53.5 80q0 46 -53.5 79t-131.5 33q-125 0 -250 100q-65 66 -65 163q0 108 88 185t212 77t212 -77q10 -9 18 -18l-105 -105q-8 9 -19 17q-44 33 -106 33t-106 -33t-44 -79q0 -47 44 -80t121 -33q75 0 191 -55 q159 -95 159 -220q0 -109 -105 -179.5t-260 -70.5t-265 77q-26 18 -45 38z" />
<glyph unicode="t" horiz-adv-x="700" d="M0 750v150h200v200h150v-200h200v-150h-200v-750h-150v750h-200z" />
<glyph unicode="u" d="M0 450v450h150v-450q0 -124 88 -212t212 -88t212 88t88 212v450h150v-450q0 -186 -132 -318t-318 -132t-318 132t-132 318z" />
<glyph unicode="v" horiz-adv-x="900" d="M0 900h175l200 -500l200 500h175l-375 -900z" />
<glyph unicode="w" horiz-adv-x="1300" d="M0 900h175l200 -500l200 500l200 -500l200 500h175l-375 -900l-200 491l-200 -491z" />
<glyph unicode="x" horiz-adv-x="900" d="M0 0l288 450l-288 450h175l200 -313l200 313h175l-287 -450l287 -450h-175l-200 313l-200 -313h-175z" />
<glyph unicode="y" horiz-adv-x="900" d="M0 900h175l191 -626l209 626h175l-300 -900l-150 -450h-175l150 450z" />
<glyph unicode="z" horiz-adv-x="900" d="M0 0l479 750h-479v150h750l-479 -750h479v-150h-750z" />
<glyph unicode="{" horiz-adv-x="950" d="M0 700v150q145 0 247.5 80.5t102.5 194.5v275q0 186 110 318t265 132h75v-150h-75q-93 0 -159 -88t-66 -212v-275q0 -176 -146 -300q-27 -23 -54 -50q25 -25 39 -49q161 -125 161 -301v-275q0 -124 66 -212t159 -88h75v-150h-75q-155 0 -265 132t-110 318v275 q0 114 -92 194.5t-258 80.5z" />
<glyph unicode="|" horiz-adv-x="300" d="M0 -300v2150h150v-2150h-150z" />
<glyph unicode="}" horiz-adv-x="950" d="M0 -150h75q93 0 159 88t66 212v275q0 176 161 301q14 24 39 49q-27 27 -54 50q-146 124 -146 300v275q0 124 -66 212t-159 88h-75v150h75q155 0 265 -132t110 -318v-275q0 -114 102.5 -194.5t247.5 -80.5v-150q-166 0 -258 -80.5t-92 -194.5v-275q0 -186 -110 -318 t-265 -132h-75v150z" />
<glyph unicode="~" horiz-adv-x="750" d="M0 1625q18 99 68 152t125 53q17 0 32 -2t27 -6l98 -29q23 -6 34 -8t20 -2q33 0 56.5 18t39.5 49h100q-34 -96 -84.5 -149.5t-126.5 -53.5q-13 0 -30 3t-36 8l-96 26q-13 4 -25.5 6.5t-23.5 2.5q-31 0 -53.5 -17.5t-24.5 -50.5h-100z" />
<glyph unicode="&#xa1;" horiz-adv-x="300" d="M-25 1325q0 41 29.5 70.5t70.5 29.5t70.5 -29.5t29.5 -70.5t-29.5 -70.5t-70.5 -29.5t-70.5 29.5t-29.5 70.5zM0 0v1075h150v-1075h-150z" />
<glyph unicode="&#xa2;" horiz-adv-x="925" d="M0 600q0 186 132 318q95 95 218 122v160h150v-152q153 -16 267 -129l-117 -94v-2q-65 60 -150 73v-592q85 13 150 73v-2l117 -94q-114 -113 -267 -129v-152h-150v160q-123 27 -218 122q-132 132 -132 318zM150 600q0 -124 88 -212q50 -50 112 -72v568q-62 -22 -112 -72 q-88 -88 -88 -212z" />
<glyph unicode="&#xa3;" horiz-adv-x="1350" d="M0 0v150q124 0 212 88t88 212v300h-200v150h200v150q0 186 132 318t318 132t318 -132t132 -318h-150q0 124 -88 212t-212 88t-212 -88t-88 -212v-150h200v-150h-200v-300q0 -173 -115 -300h865v-150h-1200z" />
<glyph unicode="&#xa4;" horiz-adv-x="1100" d="M0 300l221 271q-71 87 -71 204t71 204l-221 271h175l151 -185q67 35 149 35t149 -35l151 185h175l-221 -271q71 -87 71 -204t-71 -204l221 -271h-175l-151 185q-67 -35 -149 -35t-149 35l-151 -185h-175zM300 775q0 -72 51 -123.5t124 -51.5q72 0 123.5 51.5t51.5 123.5 q0 73 -51.5 124t-123.5 51q-73 0 -124 -51t-51 -124z" />
<glyph unicode="&#xa5;" horiz-adv-x="1250" d="M0 1550h200l350 -603l350 603h200l-432 -750h332v-150h-375v-250h375v-150h-375v-250h-150v250h-375v150h375v250h-375v150h332z" />
<glyph unicode="&#xa6;" horiz-adv-x="300" d="M0 -300v1000h150v-1000h-150zM0 1000v850h150v-850h-150z" />
<glyph unicode="&#xa7;" horiz-adv-x="1014" d="M170 1130q0 148 89 237q82 79 216 86q8 1 17 1h3q66 0 163 -16.5t97 -41.5v-194h-51q-5 81 -80 132q-70 47 -149 51h-15q-78 0 -125 -44.5t-47 -117.5q0 -132 287 -269q149 -67 204.5 -143.5t55.5 -187.5q0 -171 -101 -282q-47 -39 -99 -64q108 -56 154 -118 q55 -77 55 -187q0 -171 -101 -283q-124 -102 -277 -105v1q-6 -1 -13 -1h-3q-66 0 -163 16.5t-97 41.5v194h51q5 -81 80 -132q68 -45 145 -50q113 6 185 69q72 64 72 165q0 125 -316 276q-123 64 -175.5 137t-52.5 177q0 148 89 237q67 65 170 82l-40 19q-123 64 -175.5 137 t-52.5 177zM297 571q0 -123 248 -250q56 16 97 53q73 65 73 166q0 5 -1 10h-2q-1 14 -4 27q-22 61 -113 127q-59 29 -126 29q-78 0 -125 -44.5t-47 -117.5z" />
<glyph unicode="&#xa8;" horiz-adv-x="750" d="M0 1750q0 41 29.5 70.5t70.5 29.5t70.5 -29.5t29.5 -70.5t-29.5 -70.5t-70.5 -29.5t-70.5 29.5t-29.5 70.5zM400 1750q0 41 29.5 70.5t70.5 29.5t70.5 -29.5t29.5 -70.5t-29.5 -70.5t-70.5 -29.5t-70.5 29.5t-29.5 70.5z" />
<glyph unicode="&#xa9;" horiz-adv-x="1700" d="M0 775q0 321 227 548t548 227t548 -227t227 -548t-227 -548t-548 -227t-548 227t-227 548zM150 775q0 -259 183 -442t442 -183t442 183t183 442t-183 442t-442 183t-442 -183t-183 -442zM333 775q0 186 132 318t318 132q185 0 317 -131l-117 -94v-2q-84 77 -200 77 q-124 0 -212 -88t-88 -212t88 -212t212 -88q116 0 200 77v-2l117 -94q-132 -131 -317 -131q-186 0 -318 132t-132 318z" />
<glyph unicode="&#xaa;" horiz-adv-x="1650" d="M0 200v1100q0 200 200 200h1100q200 0 200 -200v-1100q0 -200 -200 -200h-1100q-200 0 -200 200zM25 200q1 -175 175 -175h1101q174 0 174 176v1099q0 175 -175 175h-1100q-174 0 -175 -175v-1100z" />
<glyph unicode="&#xab;" horiz-adv-x="944" d="M174 479l342 303h14v-37l-205 -266l205 -266v-37h-14zM487 479l342 303h14v-37l-205 -266l205 -266v-37h-14z" />
<glyph unicode="&#xac;" horiz-adv-x="1014" d="M87 667v100h840v-491l-1 -1h-98v392h-741z" />
<glyph unicode="&#xad;" horiz-adv-x="1100" d="M0 700v150h950v-150h-950z" />
<glyph unicode="&#xae;" horiz-adv-x="1700" d="M0 775q0 321 227 548t548 227t548 -227t227 -548t-227 -548t-548 -227t-548 227t-227 548zM150 775q0 -259 183 -442t442 -183t442 183t183 442t-183 442t-442 183t-442 -183t-183 -442zM500 325v900h150v-90q97 90 225 90q155 0 265 -132q5 -6 9 -11l-121 -87 q-64 80 -153 80q-93 0 -159 -88t-66 -212v-450h-150z" />
<glyph unicode="&#xaf;" horiz-adv-x="1650" d="M0 200v1100q0 200 200 200h1100q200 0 200 -200v-1100q0 -200 -200 -200h-1100q-200 0 -200 200zM25 200q1 -175 175 -175h1101q174 0 174 176v1099q0 175 -175 175h-1100q-174 0 -175 -175v-1100z" />
<glyph unicode="&#xb0;" horiz-adv-x="674" d="M60 1164q0 116 81.5 197t197.5 81q115 0 196 -81.5t81 -196.5q0 -114 -82 -196t-197 -82q-117 0 -197 81t-80 197zM130 1163q0 -87 61 -147t148 -60t147 60t60 147t-60.5 148t-146.5 61t-147.5 -61t-61.5 -148z" />
<glyph unicode="&#xb1;" horiz-adv-x="1650" d="M0 200v1100q0 200 200 200h1100q200 0 200 -200v-1100q0 -200 -200 -200h-1100q-200 0 -200 200zM25 200q1 -175 175 -175h1101q174 0 174 176v1099q0 175 -175 175h-1100q-174 0 -175 -175v-1100z" />
<glyph unicode="&#xb2;" horiz-adv-x="1650" d="M0 200v1100q0 200 200 200h1100q200 0 200 -200v-1100q0 -200 -200 -200h-1100q-200 0 -200 200zM25 200q1 -175 175 -175h1101q174 0 174 176v1099q0 175 -175 175h-1100q-174 0 -175 -175v-1100z" />
<glyph unicode="&#xb3;" horiz-adv-x="1650" d="M0 200v1100q0 200 200 200h1100q200 0 200 -200v-1100q0 -200 -200 -200h-1100q-200 0 -200 200zM25 200q1 -175 175 -175h1101q174 0 174 176v1099q0 175 -175 175h-1100q-174 0 -175 -175v-1100z" />
<glyph unicode="&#xb4;" horiz-adv-x="600" d="M0 1600l200 325h250l-300 -325h-150z" />
<glyph unicode="&#xb5;" horiz-adv-x="900" d="M0 -450v1350h150v-450q0 -124 66 -212t159 -88t159 88t66 212v450h150v-900h-150v90q-97 -90 -225 -90t-225 90v-540h-150z" />
<glyph unicode="&#xb6;" horiz-adv-x="1024" d="M93 1086q0 157 107.5 253t285.5 96h443v-70h-127v-1365h-82v1365h-166v-1365h-84v738q-174 8 -275.5 102.5t-101.5 245.5z" />
<glyph unicode="&#xb7;" horiz-adv-x="300" d="M-25 750q0 41 29.5 70.5t70.5 29.5t70.5 -29.5t29.5 -70.5t-29.5 -70.5t-70.5 -29.5t-70.5 29.5t-29.5 70.5z" />
<glyph unicode="&#xb8;" horiz-adv-x="800" d="M0 -150h150q0 -62 51 -106t124 -44q72 0 123.5 44t51.5 106t-51.5 106t-123.5 44v150q135 0 230 -88t95 -212t-95 -212t-230 -88t-230 88t-95 212z" />
<glyph unicode="&#xb9;" horiz-adv-x="1650" d="M0 200v1100q0 200 200 200h1100q200 0 200 -200v-1100q0 -200 -200 -200h-1100q-200 0 -200 200zM25 200q1 -175 175 -175h1101q174 0 174 176v1099q0 175 -175 175h-1100q-174 0 -175 -175v-1100z" />
<glyph unicode="&#xba;" horiz-adv-x="1650" d="M0 200v1100q0 200 200 200h1100q200 0 200 -200v-1100q0 -200 -200 -200h-1100q-200 0 -200 200zM25 200q1 -175 175 -175h1101q174 0 174 176v1099q0 175 -175 175h-1100q-174 0 -175 -175v-1100z" />
<glyph unicode="&#xbb;" horiz-adv-x="944" d="M101 176v37l205 266l-205 266v37h14l342 -303l-342 -303h-14zM414 176v37l205 266l-205 266v37h14l342 -303l-342 -303h-14z" />
<glyph unicode="&#xbc;" horiz-adv-x="1650" d="M0 200v1100q0 200 200 200h1100q200 0 200 -200v-1100q0 -200 -200 -200h-1100q-200 0 -200 200zM25 200q1 -175 175 -175h1101q174 0 174 176v1099q0 175 -175 175h-1100q-174 0 -175 -175v-1100z" />
<glyph unicode="&#xbd;" horiz-adv-x="1650" d="M0 200v1100q0 200 200 200h1100q200 0 200 -200v-1100q0 -200 -200 -200h-1100q-200 0 -200 200zM25 200q1 -175 175 -175h1101q174 0 174 176v1099q0 175 -175 175h-1100q-174 0 -175 -175v-1100z" />
<glyph unicode="&#xbe;" horiz-adv-x="1650" d="M0 200v1100q0 200 200 200h1100q200 0 200 -200v-1100q0 -200 -200 -200h-1100q-200 0 -200 200zM25 200q1 -175 175 -175h1101q174 0 174 176v1099q0 175 -175 175h-1100q-174 0 -175 -175v-1100z" />
<glyph unicode="&#xbf;" d="M10 425q0 176 200 275q366 150 395.5 179.5t29.5 70.5t-29.5 70.5t-70.5 29.5t-70.5 -29.5t-29.5 -70.5h-150q0 104 73 177t177 73t177 -73t73 -177t-73 -177t-377 -173q-175 -61 -175 -175t102.5 -194.5t247.5 -80.5t247 80q21 17 38 35l105 -106q-17 -18 -37 -35 q-146 -124 -353 -124t-353.5 124.5t-146.5 300.5zM435 1450q0 41 29.5 70.5t70.5 29.5t70.5 -29.5t29.5 -70.5t-29.5 -70.5t-70.5 -29.5t-70.5 29.5t-29.5 70.5z" />
<glyph unicode="&#xc0;" horiz-adv-x="1250" d="M0 0l550 1550l550 -1550h-200l-87 250h-526l-87 -250h-200zM325 1925h250l200 -325h-150zM339 400h422l-211 606z" />
<glyph unicode="&#xc1;" horiz-adv-x="1250" d="M0 0l550 1550l550 -1550h-200l-87 250h-526l-87 -250h-200zM339 400h422l-211 606zM350 1600l200 325h250l-300 -325h-150z" />
<glyph unicode="&#xc2;" horiz-adv-x="1250" d="M0 0l550 1550l550 -1550h-200l-87 250h-526l-87 -250h-200zM225 1600l325 350l325 -350h-175l-150 150l-150 -150h-175zM339 400h422l-211 606z" />
<glyph unicode="&#xc3;" horiz-adv-x="1250" d="M0 0l550 1550l550 -1550h-200l-87 250h-526l-87 -250h-200zM275 1625q18 99 68 152t125 53q17 0 32 -2t27 -6l98 -29q23 -6 34 -8t20 -2q33 0 56.5 18t39.5 49h100q-34 -96 -84.5 -149.5t-126.5 -53.5q-13 0 -30 3t-36 8l-96 26q-13 4 -25.5 6.5t-23.5 2.5 q-31 0 -53.5 -17.5t-24.5 -50.5h-100zM339 400h422l-211 606z" />
<glyph unicode="&#xc4;" horiz-adv-x="1250" d="M0 0l550 1550l550 -1550h-200l-87 250h-526l-87 -250h-200zM250 1750q0 41 29.5 70.5t70.5 29.5t70.5 -29.5t29.5 -70.5t-29.5 -70.5t-70.5 -29.5t-70.5 29.5t-29.5 70.5zM339 400h422l-211 606zM650 1750q0 41 29.5 70.5t70.5 29.5t70.5 -29.5t29.5 -70.5t-29.5 -70.5 t-70.5 -29.5t-70.5 29.5t-29.5 70.5z" />
<glyph unicode="&#xc5;" horiz-adv-x="1250" d="M0 0l550 1550l550 -1550h-200l-87 250h-526l-87 -250h-200zM339 400h422l-211 606zM450 1750q0 41 29.5 70.5t70.5 29.5t70.5 -29.5t29.5 -70.5t-29.5 -70.5t-70.5 -29.5t-70.5 29.5t-29.5 70.5z" />
<glyph unicode="&#xc6;" horiz-adv-x="1750" d="M0 0l550 1550l250 -705v705h800v-150h-650v-550h650v-150h-650v-277l97 -273h553v-150h-800v250h-513l-87 -250h-200zM339 400h422l-211 606z" />
<glyph unicode="&#xc7;" horiz-adv-x="1450" d="M0 775q0 321 227 548t548 227t548 -227l-106 -106q-183 183 -442 183t-442 -183t-183 -442t183 -442t442 -183t442 183l106 -106q-148 -148 -336 -199q63 -77 63 -178q0 -124 -95 -212t-230 -88t-230 88t-95 212h150q0 -62 51 -106t124 -44q72 0 123.5 44t51.5 106 t-51.5 106t-123.5 44v1q-289 17 -498 226q-227 227 -227 548z" />
<glyph unicode="&#xc8;" horiz-adv-x="1250" d="M0 0v1550h1100v-150h-950v-550h950v-150h-950v-550h950v-150h-1100zM325 1925h250l200 -325h-150z" />
<glyph unicode="&#xc9;" horiz-adv-x="1250" d="M0 0v1550h1100v-150h-950v-550h950v-150h-950v-550h950v-150h-1100zM350 1600l200 325h250l-300 -325h-150z" />
<glyph unicode="&#xca;" horiz-adv-x="1250" d="M0 0v1550h1100v-150h-950v-550h950v-150h-950v-550h950v-150h-1100zM250 1600l325 350l325 -350h-175l-150 150l-150 -150h-175z" />
<glyph unicode="&#xcb;" horiz-adv-x="1250" d="M0 0v1550h1100v-150h-950v-550h950v-150h-950v-550h950v-150h-1100zM250 1750q0 41 29.5 70.5t70.5 29.5t70.5 -29.5t29.5 -70.5t-29.5 -70.5t-70.5 -29.5t-70.5 29.5t-29.5 70.5zM650 1750q0 41 29.5 70.5t70.5 29.5t70.5 -29.5t29.5 -70.5t-29.5 -70.5t-70.5 -29.5 t-70.5 29.5t-29.5 70.5z" />
<glyph unicode="&#xcc;" horiz-adv-x="300" d="M-150 1925h250l200 -325h-150zM0 0v1550h150v-1550h-150z" />
<glyph unicode="&#xcd;" horiz-adv-x="300" d="M-150 1600l200 325h250l-300 -325h-150zM0 0v1550h150v-1550h-150z" />
<glyph unicode="&#xce;" horiz-adv-x="300" d="M-250 1600l325 350l325 -350h-175l-150 150l-150 -150h-175zM0 0v1550h150v-1550h-150z" />
<glyph unicode="&#xcf;" horiz-adv-x="300" d="M-225 1750q0 41 29.5 70.5t70.5 29.5t70.5 -29.5t29.5 -70.5t-29.5 -70.5t-70.5 -29.5t-70.5 29.5t-29.5 70.5zM0 0v1550h150v-1550h-150zM175 1750q0 41 29.5 70.5t70.5 29.5t70.5 -29.5t29.5 -70.5t-29.5 -70.5t-70.5 -29.5t-70.5 29.5t-29.5 70.5z" />
<glyph unicode="&#xd0;" horiz-adv-x="1400" d="M0 750v150h200v650h275q321 0 548 -227t227 -548t-227 -548t-548 -227h-275v750h-200zM350 150h125q259 0 442 183t183 442t-183 442t-442 183h-125v-500h200v-150h-200v-600z" />
<glyph unicode="&#xd1;" horiz-adv-x="1400" d="M0 0v1550l1100 -1166v1166h150v-1550l-1100 1166v-1166h-150zM325 1625q18 99 68 152t125 53q17 0 32 -2t27 -6l98 -29q23 -6 34 -8t20 -2q33 0 56.5 18t39.5 49h100q-34 -96 -84.5 -149.5t-126.5 -53.5q-13 0 -30 3t-36 8l-96 26q-13 4 -25.5 6.5t-23.5 2.5 q-31 0 -53.5 -17.5t-24.5 -50.5h-100z" />
<glyph unicode="&#xd2;" horiz-adv-x="1700" d="M0 775q0 321 227 548t548 227t548 -227t227 -548t-227 -548t-548 -227t-548 227t-227 548zM150 775q0 -259 183 -442t442 -183t442 183t183 442t-183 442t-442 183t-442 -183t-183 -442zM550 1925h250l200 -325h-150z" />
<glyph unicode="&#xd3;" horiz-adv-x="1700" d="M0 775q0 321 227 548t548 227t548 -227t227 -548t-227 -548t-548 -227t-548 227t-227 548zM150 775q0 -259 183 -442t442 -183t442 183t183 442t-183 442t-442 183t-442 -183t-183 -442zM600 1600l200 325h250l-300 -325h-150z" />
<glyph unicode="&#xd4;" horiz-adv-x="1700" d="M0 775q0 321 227 548t548 227t548 -227t227 -548t-227 -548t-548 -227t-548 227t-227 548zM150 775q0 -259 183 -442t442 -183t442 183t183 442t-183 442t-442 183t-442 -183t-183 -442zM450 1600l325 350l325 -350h-175l-150 150l-150 -150h-175z" />
<glyph unicode="&#xd5;" horiz-adv-x="1700" d="M0 775q0 321 227 548t548 227t548 -227t227 -548t-227 -548t-548 -227t-548 227t-227 548zM150 775q0 -259 183 -442t442 -183t442 183t183 442t-183 442t-442 183t-442 -183t-183 -442zM500 1625q18 99 68 152t125 53q17 0 32 -2t27 -6l98 -29q23 -6 34 -8t20 -2 q33 0 56.5 18t39.5 49h100q-34 -96 -84.5 -149.5t-126.5 -53.5q-13 0 -30 3t-36 8l-96 26q-13 4 -25.5 6.5t-23.5 2.5q-31 0 -53.5 -17.5t-24.5 -50.5h-100z" />
<glyph unicode="&#xd6;" horiz-adv-x="1700" d="M0 775q0 321 227 548t548 227t548 -227t227 -548t-227 -548t-548 -227t-548 227t-227 548zM150 775q0 -259 183 -442t442 -183t442 183t183 442t-183 442t-442 183t-442 -183t-183 -442zM475 1750q0 41 29.5 70.5t70.5 29.5t70.5 -29.5t29.5 -70.5t-29.5 -70.5 t-70.5 -29.5t-70.5 29.5t-29.5 70.5zM875 1750q0 41 29.5 70.5t70.5 29.5t70.5 -29.5t29.5 -70.5t-29.5 -70.5t-70.5 -29.5t-70.5 29.5t-29.5 70.5z" />
<glyph unicode="&#xd7;" horiz-adv-x="1100" d="M0 300l388 475l-388 475h175l300 -368l300 368h175l-387 -475l387 -475h-175l-300 368l-300 -368h-175z" />
<glyph unicode="&#xd8;" horiz-adv-x="1700" d="M0 775q0 321 227 548t548 227q170 0 313 -63l37 63h200l-88 -152q45 -34 86 -75q227 -227 227 -548t-227 -548t-548 -227q-170 0 -313 63l-37 -63h-200l88 152q-45 34 -86 75q-227 227 -227 548zM150 775q0 -259 183 -442q27 -27 56 -50l623 1072q-109 45 -237 45 q-259 0 -442 -183t-183 -442zM538 195q109 -45 237 -45q259 0 442 183t183 442t-183 442q-27 27 -56 50z" />
<glyph unicode="&#xd9;" horiz-adv-x="1400" d="M0 625v925h150v-925q0 -197 139 -336t336 -139t336 139t139 336v925h150v-925q0 -259 -183 -442t-442 -183t-442 183t-183 442zM400 1925h250l200 -325h-150z" />
<glyph unicode="&#xda;" horiz-adv-x="1400" d="M0 625v925h150v-925q0 -197 139 -336t336 -139t336 139t139 336v925h150v-925q0 -259 -183 -442t-442 -183t-442 183t-183 442zM450 1600l200 325h250l-300 -325h-150z" />
<glyph unicode="&#xdb;" horiz-adv-x="1400" d="M0 625v925h150v-925q0 -197 139 -336t336 -139t336 139t139 336v925h150v-925q0 -259 -183 -442t-442 -183t-442 183t-183 442zM300 1600l325 350l325 -350h-175l-150 150l-150 -150h-175z" />
<glyph unicode="&#xdc;" horiz-adv-x="1400" d="M0 625v925h150v-925q0 -197 139 -336t336 -139t336 139t139 336v925h150v-925q0 -259 -183 -442t-442 -183t-442 183t-183 442zM325 1750q0 41 29.5 70.5t70.5 29.5t70.5 -29.5t29.5 -70.5t-29.5 -70.5t-70.5 -29.5t-70.5 29.5t-29.5 70.5zM725 1750q0 41 29.5 70.5 t70.5 29.5t70.5 -29.5t29.5 -70.5t-29.5 -70.5t-70.5 -29.5t-70.5 29.5t-29.5 70.5z" />
<glyph unicode="&#xdd;" horiz-adv-x="1250" d="M0 1550h200l350 -603l350 603h200l-475 -825v-725h-150v725zM350 1600l200 325h250l-300 -325h-150z" />
<glyph unicode="&#xde;" horiz-adv-x="1250" d="M0 0v1550h150v-350h525q176 0 300.5 -124.5t124.5 -300.5t-124.5 -300.5t-300.5 -124.5h-525v-350h-150zM150 500h525q114 0 194.5 80.5t80.5 194.5t-80.5 194.5t-194.5 80.5h-525v-550z" />
<glyph unicode="&#xdf;" horiz-adv-x="1200" d="M0 0v1125q0 176 146.5 300.5t353.5 124.5t353.5 -124.5t146.5 -300.5t-146 -300q-27 -23 -56 -42q48 -24 91 -57q161 -125 161 -301t-161 -300.5t-389 -124.5v150q166 0 283 80.5t117 194.5t-117 194.5t-283 80.5v150q145 0 247.5 80.5t102.5 194.5t-102.5 194.5 t-247.5 80.5t-247.5 -80.5t-102.5 -194.5v-1125h-150z" />
<glyph unicode="&#xe0;" d="M0 450q0 186 132 318t318 132q173 0 300 -115v115h150v-900h-150v115q-127 -115 -300 -115q-186 0 -318 132t-132 318zM150 450q0 -124 88 -212t212 -88t212 88t88 212t-88 212t-212 88t-212 -88t-88 -212zM200 1500h250l200 -325h-150z" />
<glyph unicode="&#xe1;" d="M0 450q0 186 132 318t318 132q173 0 300 -115v115h150v-900h-150v115q-127 -115 -300 -115q-186 0 -318 132t-132 318zM150 450q0 -124 88 -212t212 -88t212 88t88 212t-88 212t-212 88t-212 -88t-88 -212zM250 1175l200 325h250l-300 -325h-150z" />
<glyph unicode="&#xe2;" d="M0 450q0 186 132 318t318 132q173 0 300 -115v115h150v-900h-150v115q-127 -115 -300 -115q-186 0 -318 132t-132 318zM125 1150l325 350l325 -350h-175l-150 150l-150 -150h-175zM150 450q0 -124 88 -212t212 -88t212 88t88 212t-88 212t-212 88t-212 -88t-88 -212z" />
<glyph unicode="&#xe3;" d="M0 450q0 186 132 318t318 132q173 0 300 -115v115h150v-900h-150v115q-127 -115 -300 -115q-186 0 -318 132t-132 318zM150 450q0 -124 88 -212t212 -88t212 88t88 212t-88 212t-212 88t-212 -88t-88 -212zM150 1175q18 99 68 152t125 53q17 0 32 -2t27 -6l98 -29 q23 -6 34 -8t20 -2q33 0 56.5 18t39.5 49h100q-34 -96 -84.5 -149.5t-126.5 -53.5q-13 0 -30 3t-36 8l-96 26q-13 4 -25.5 6.5t-23.5 2.5q-31 0 -53.5 -17.5t-24.5 -50.5h-100z" />
<glyph unicode="&#xe4;" d="M0 450q0 186 132 318t318 132q173 0 300 -115v115h150v-900h-150v115q-127 -115 -300 -115q-186 0 -318 132t-132 318zM150 450q0 -124 88 -212t212 -88t212 88t88 212t-88 212t-212 88t-212 -88t-88 -212zM150 1325q0 41 29.5 70.5t70.5 29.5t70.5 -29.5t29.5 -70.5 t-29.5 -70.5t-70.5 -29.5t-70.5 29.5t-29.5 70.5zM550 1325q0 41 29.5 70.5t70.5 29.5t70.5 -29.5t29.5 -70.5t-29.5 -70.5t-70.5 -29.5t-70.5 29.5t-29.5 70.5z" />
<glyph unicode="&#xe5;" d="M0 450q0 186 132 318t318 132q173 0 300 -115v115h150v-900h-150v115q-127 -115 -300 -115q-186 0 -318 132t-132 318zM150 450q0 -124 88 -212t212 -88t212 88t88 212t-88 212t-212 88t-212 -88t-88 -212zM350 1325q0 41 29.5 70.5t70.5 29.5t70.5 -29.5t29.5 -70.5 t-29.5 -70.5t-70.5 -29.5t-70.5 29.5t-29.5 70.5z" />
<glyph unicode="&#xe6;" horiz-adv-x="1650" d="M0 450q0 186 110 318t265 132q128 0 225 -90v90h150v-115q127 115 300 115q186 0 318 -132t132 -318q0 -39 -6 -75h-735q19 -77 79 -137q88 -88 212 -88q116 0 200 77v-2l117 -94q-132 -131 -317 -131q-173 0 -300 115v-115h-150v90q-97 -90 -225 -90q-155 0 -265 132 t-110 318zM150 450q0 -124 66 -212t159 -88t159 88t66 212t-66 212t-159 88t-159 -88t-66 -212zM759 525h582q-19 77 -79 137q-88 88 -212 88t-212 -88q-60 -60 -79 -137z" />
<glyph unicode="&#xe7;" horiz-adv-x="925" d="M0 450q0 186 132 318t318 132q185 0 317 -131l-117 -94v-2q-84 77 -200 77q-124 0 -212 -88t-88 -212t88 -212t212 -88q116 0 200 77v-2l117 -94q-48 -48 -103 -78q86 -85 86 -203q0 -124 -95 -212t-230 -88t-230 88t-95 212h150q0 -62 51 -106t124 -44q72 0 123.5 44 t51.5 106t-51.5 106t-123.5 44v1q-170 8 -293 131q-132 132 -132 318z" />
<glyph unicode="&#xe8;" d="M0 450q0 186 132 318t318 132t318 -132t132 -318q0 -39 -6 -75h-735q19 -77 79 -137q88 -88 212 -88q116 0 200 77v-2l117 -94q-132 -131 -317 -131q-186 0 -318 132t-132 318zM159 525h582q-19 77 -79 137q-88 88 -212 88t-212 -88q-60 -60 -79 -137zM200 1500h250 l200 -325h-150z" />
<glyph unicode="&#xe9;" d="M0 450q0 186 132 318t318 132t318 -132t132 -318q0 -39 -6 -75h-735q19 -77 79 -137q88 -88 212 -88q116 0 200 77v-2l117 -94q-132 -131 -317 -131q-186 0 -318 132t-132 318zM159 525h582q-19 77 -79 137q-88 88 -212 88t-212 -88q-60 -60 -79 -137zM250 1175l200 325 h250l-300 -325h-150z" />
<glyph unicode="&#xea;" d="M0 450q0 186 132 318t318 132t318 -132t132 -318q0 -39 -6 -75h-735q19 -77 79 -137q88 -88 212 -88q116 0 200 77v-2l117 -94q-132 -131 -317 -131q-186 0 -318 132t-132 318zM125 1150l325 350l325 -350h-175l-150 150l-150 -150h-175zM159 525h582q-19 77 -79 137 q-88 88 -212 88t-212 -88q-60 -60 -79 -137z" />
<glyph unicode="&#xeb;" d="M0 450q0 186 132 318t318 132t318 -132t132 -318q0 -39 -6 -75h-735q19 -77 79 -137q88 -88 212 -88q116 0 200 77v-2l117 -94q-132 -131 -317 -131q-186 0 -318 132t-132 318zM150 1325q0 41 29.5 70.5t70.5 29.5t70.5 -29.5t29.5 -70.5t-29.5 -70.5t-70.5 -29.5 t-70.5 29.5t-29.5 70.5zM159 525h582q-19 77 -79 137q-88 88 -212 88t-212 -88q-60 -60 -79 -137zM550 1325q0 41 29.5 70.5t70.5 29.5t70.5 -29.5t29.5 -70.5t-29.5 -70.5t-70.5 -29.5t-70.5 29.5t-29.5 70.5z" />
<glyph unicode="&#xec;" horiz-adv-x="300" d="M-150 1500h250l200 -325h-150zM0 0v900h150v-900h-150z" />
<glyph unicode="&#xed;" horiz-adv-x="300" d="M-150 1175l200 325h250l-300 -325h-150zM0 0v900h150v-900h-150z" />
<glyph unicode="&#xee;" horiz-adv-x="300" d="M-250 1150l325 350l325 -350h-175l-150 150l-150 -150h-175zM0 0v900h150v-900h-150z" />
<glyph unicode="&#xef;" horiz-adv-x="300" d="M-225 1325q0 41 29.5 70.5t70.5 29.5t70.5 -29.5t29.5 -70.5t-29.5 -70.5t-70.5 -29.5t-70.5 29.5t-29.5 70.5zM0 0v900h150v-900h-150zM175 1325q0 41 29.5 70.5t70.5 29.5t70.5 -29.5t29.5 -70.5t-29.5 -70.5t-70.5 -29.5t-70.5 29.5t-29.5 70.5z" />
<glyph unicode="&#xf0;" horiz-adv-x="900" d="M0 450q0 186 110 318t265 132q128 0 225 -90v90q0 124 -66 212t-159 88t-159 -88t-66 -212h-150q0 186 110 318q21 25 43 45q-46 28 -87 68l117 94v1q85 -76 200 -76q116 0 200 77v-2l117 -94q-45 -45 -96 -74q18 -18 36 -39q110 -132 110 -318v-425q0 -200 -100 -337.5 t-275 -137.5q-155 0 -265 132t-110 318zM150 450q0 -124 66 -212t159 -88t159 88t66 212t-66 212t-159 88t-159 -88t-66 -212z" />
<glyph unicode="&#xf1;" horiz-adv-x="900" d="M0 0v900h150v-90q97 90 225 90q155 0 265 -132t110 -318v-450h-150v450q0 124 -66 212t-159 88t-159 -88t-66 -212v-450h-150zM75 1175q18 99 68 152t125 53q17 0 32 -2t27 -6l98 -29q23 -6 34 -8t20 -2q33 0 56.5 18t39.5 49h100q-34 -96 -84.5 -149.5t-126.5 -53.5 q-13 0 -30 3t-36 8l-96 26q-13 4 -25.5 6.5t-23.5 2.5q-31 0 -53.5 -17.5t-24.5 -50.5h-100z" />
<glyph unicode="&#xf2;" d="M0 450q0 186 132 318t318 132t318 -132t132 -318t-132 -318t-318 -132t-318 132t-132 318zM150 450q0 -124 88 -212t212 -88t212 88t88 212t-88 212t-212 88t-212 -88t-88 -212zM200 1500h250l200 -325h-150z" />
<glyph unicode="&#xf3;" d="M0 450q0 186 132 318t318 132t318 -132t132 -318t-132 -318t-318 -132t-318 132t-132 318zM150 450q0 -124 88 -212t212 -88t212 88t88 212t-88 212t-212 88t-212 -88t-88 -212zM250 1175l200 325h250l-300 -325h-150z" />
<glyph unicode="&#xf4;" d="M0 450q0 186 132 318t318 132t318 -132t132 -318t-132 -318t-318 -132t-318 132t-132 318zM125 1150l325 350l325 -350h-175l-150 150l-150 -150h-175zM150 450q0 -124 88 -212t212 -88t212 88t88 212t-88 212t-212 88t-212 -88t-88 -212z" />
<glyph unicode="&#xf5;" d="M0 450q0 186 132 318t318 132t318 -132t132 -318t-132 -318t-318 -132t-318 132t-132 318zM150 450q0 -124 88 -212t212 -88t212 88t88 212t-88 212t-212 88t-212 -88t-88 -212zM150 1175q18 99 68 152t125 53q17 0 32 -2t27 -6l98 -29q23 -6 34 -8t20 -2q33 0 56.5 18 t39.5 49h100q-34 -96 -84.5 -149.5t-126.5 -53.5q-13 0 -30 3t-36 8l-96 26q-13 4 -25.5 6.5t-23.5 2.5q-31 0 -53.5 -17.5t-24.5 -50.5h-100z" />
<glyph unicode="&#xf6;" d="M0 450q0 186 132 318t318 132t318 -132t132 -318t-132 -318t-318 -132t-318 132t-132 318zM150 450q0 -124 88 -212t212 -88t212 88t88 212t-88 212t-212 88t-212 -88t-88 -212zM150 1325q0 41 29.5 70.5t70.5 29.5t70.5 -29.5t29.5 -70.5t-29.5 -70.5t-70.5 -29.5 t-70.5 29.5t-29.5 70.5zM550 1325q0 41 29.5 70.5t70.5 29.5t70.5 -29.5t29.5 -70.5t-29.5 -70.5t-70.5 -29.5t-70.5 29.5t-29.5 70.5z" />
<glyph unicode="&#xf7;" horiz-adv-x="1100" d="M0 700v150h950v-150h-950zM375 450q0 41 29.5 70.5t70.5 29.5t70.5 -29.5t29.5 -70.5t-29.5 -70.5t-70.5 -29.5t-70.5 29.5t-29.5 70.5zM375 1100q0 41 29.5 70.5t70.5 29.5t70.5 -29.5t29.5 -70.5t-29.5 -70.5t-70.5 -29.5t-70.5 29.5t-29.5 70.5z" />
<glyph unicode="&#xf8;" d="M0 450q0 186 132 318t318 132q74 0 139 -21l11 21h175l-50 -94q22 -17 43 -38q132 -132 132 -318t-132 -318t-318 -132q-74 0 -139 21l-11 -21h-175l50 94q-22 17 -43 38q-132 132 -132 318zM150 450q0 -124 88 -212l8 -8l271 513q-32 7 -67 7q-124 0 -212 -88t-88 -212z M383 157q32 -7 67 -7q124 0 212 88t88 212t-88 212l-8 8z" />
<glyph unicode="&#xf9;" d="M0 450v450h150v-450q0 -124 88 -212t212 -88t212 88t88 212v450h150v-450q0 -186 -132 -318t-318 -132t-318 132t-132 318zM200 1500h250l200 -325h-150z" />
<glyph unicode="&#xfa;" d="M0 450v450h150v-450q0 -124 88 -212t212 -88t212 88t88 212v450h150v-450q0 -186 -132 -318t-318 -132t-318 132t-132 318zM250 1175l200 325h250l-300 -325h-150z" />
<glyph unicode="&#xfb;" d="M0 450v450h150v-450q0 -124 88 -212t212 -88t212 88t88 212v450h150v-450q0 -186 -132 -318t-318 -132t-318 132t-132 318zM125 1150l325 350l325 -350h-175l-150 150l-150 -150h-175z" />
<glyph unicode="&#xfc;" d="M0 450v450h150v-450q0 -124 88 -212t212 -88t212 88t88 212v450h150v-450q0 -186 -132 -318t-318 -132t-318 132t-132 318zM150 1325q0 41 29.5 70.5t70.5 29.5t70.5 -29.5t29.5 -70.5t-29.5 -70.5t-70.5 -29.5t-70.5 29.5t-29.5 70.5zM550 1325q0 41 29.5 70.5 t70.5 29.5t70.5 -29.5t29.5 -70.5t-29.5 -70.5t-70.5 -29.5t-70.5 29.5t-29.5 70.5z" />
<glyph unicode="&#xfd;" horiz-adv-x="900" d="M0 900h175l191 -626l209 626h175l-300 -900l-150 -450h-175l150 450zM200 1175l200 325h250l-300 -325h-150z" />
<glyph unicode="&#xfe;" d="M0 -450v2000h150v-765q127 115 300 115q186 0 318 -132t132 -318t-132 -318t-318 -132q-173 0 -300 115v-565h-150zM150 450q0 -124 88 -212t212 -88t212 88t88 212t-88 212t-212 88t-212 -88t-88 -212z" />
<glyph unicode="&#xff;" horiz-adv-x="900" d="M0 900h175l191 -626l209 626h175l-300 -900l-150 -450h-175l150 450zM75 1325q0 41 29.5 70.5t70.5 29.5t70.5 -29.5t29.5 -70.5t-29.5 -70.5t-70.5 -29.5t-70.5 29.5t-29.5 70.5zM475 1325q0 41 29.5 70.5t70.5 29.5t70.5 -29.5t29.5 -70.5t-29.5 -70.5t-70.5 -29.5 t-70.5 29.5t-29.5 70.5z" />
<glyph unicode="&#x2c6;" horiz-adv-x="800" d="M0 1600l325 350l325 -350h-175l-150 150l-150 -150h-175z" />
<glyph unicode="&#x2dc;" horiz-adv-x="750" d="M0 1625q18 99 68 152t125 53q17 0 32 -2t27 -6l98 -29q23 -6 34 -8t20 -2q33 0 56.5 18t39.5 49h100q-34 -96 -84.5 -149.5t-126.5 -53.5q-13 0 -30 3t-36 8l-96 26q-13 4 -25.5 6.5t-23.5 2.5q-31 0 -53.5 -17.5t-24.5 -50.5h-100z" />
<glyph unicode="&#x2000;" horiz-adv-x="975" />
<glyph unicode="&#x2001;" horiz-adv-x="1950" />
<glyph unicode="&#x2002;" horiz-adv-x="975" />
<glyph unicode="&#x2003;" horiz-adv-x="1950" />
<glyph unicode="&#x2004;" horiz-adv-x="650" />
<glyph unicode="&#x2005;" horiz-adv-x="487" />
<glyph unicode="&#x2006;" horiz-adv-x="325" />
<glyph unicode="&#x2007;" horiz-adv-x="325" />
<glyph unicode="&#x2008;" horiz-adv-x="243" />
<glyph unicode="&#x2009;" horiz-adv-x="390" />
<glyph unicode="&#x200a;" horiz-adv-x="108" />
<glyph unicode="&#x2010;" horiz-adv-x="1100" d="M0 700v150h950v-150h-950z" />
<glyph unicode="&#x2011;" horiz-adv-x="1100" d="M0 700v150h950v-150h-950z" />
<glyph unicode="&#x2012;" horiz-adv-x="1100" d="M0 700v150h950v-150h-950z" />
<glyph unicode="&#x2013;" horiz-adv-x="1100" d="M0 700v150h950v-150h-950z" />
<glyph unicode="&#x2014;" horiz-adv-x="1400" d="M0 700v150h1250v-150h-1250z" />
<glyph unicode="&#x2018;" horiz-adv-x="300" d="M-100 1500l175 50l100 -375l-100 -50z" />
<glyph unicode="&#x2019;" horiz-adv-x="300" d="M-100 1175l100 375l175 -50l-175 -375z" />
<glyph unicode="&#x201a;" horiz-adv-x="557" d="M119 114v42l119 125q44 0 88.5 -65.5t44.5 -151.5q0 -109 -71 -226.5t-139 -117.5v43q73 43 87 190q0 119 -129 161z" />
<glyph unicode="&#x201c;" horiz-adv-x="575" d="M-100 1500l175 50l100 -375l-100 -50zM175 1500l175 50l100 -375l-100 -50z" />
<glyph unicode="&#x201d;" horiz-adv-x="575" d="M-100 1175l100 375l175 -50l-175 -375zM175 1175l100 375l175 -50l-175 -375z" />
<glyph unicode="&#x201e;" horiz-adv-x="910" d="M119 114v42l119 125q44 0 88.5 -65.5t44.5 -151.5q0 -109 -71 -226.5t-139 -117.5v43q73 43 87 190q0 119 -129 161zM472 114v42l119 125q44 0 88.5 -65.5t44.5 -151.5q0 -109 -71 -226.5t-139 -117.5v43q73 43 87 190q0 119 -129 161z" />
<glyph unicode="&#x2022;" horiz-adv-x="1024" d="M216 718q0 123 87 209t210 86q122 0 208.5 -86.5t86.5 -208.5t-87.5 -209.5t-209.5 -87.5q-123 0 -209 87t-86 210z" />
<glyph unicode="&#x2026;" horiz-adv-x="950" d="M0 100q0 41 29.5 70.5t70.5 29.5t70.5 -29.5t29.5 -70.5t-29.5 -70.5t-70.5 -29.5t-70.5 29.5t-29.5 70.5zM300 100q0 41 29.5 70.5t70.5 29.5t70.5 -29.5t29.5 -70.5t-29.5 -70.5t-70.5 -29.5t-70.5 29.5t-29.5 70.5zM600 100q0 41 29.5 70.5t70.5 29.5t70.5 -29.5 t29.5 -70.5t-29.5 -70.5t-70.5 -29.5t-70.5 29.5t-29.5 70.5z" />
<glyph unicode="&#x202f;" horiz-adv-x="390" />
<glyph unicode="&#x2039;" horiz-adv-x="631" d="M174 479l342 303h14v-37l-205 -266l205 -266v-37h-14z" />
<glyph unicode="&#x203a;" horiz-adv-x="631" d="M101 176v37l205 266l-205 266v37h14l342 -303l-342 -303h-14z" />
<glyph unicode="&#x205f;" horiz-adv-x="487" />
<glyph unicode="&#x20ac;" horiz-adv-x="1650" d="M0 500v150h209q-9 61 -9 125t9 125h-209v150h248q56 150 179 273q227 227 548 227t548 -227l-106 -106q-183 183 -442 183t-442 -183q-77 -77 -121 -167h538v-150h-589q-11 -60 -11 -125t11 -125h589v-150h-538q44 -90 121 -167q183 -183 442 -183t442 183l106 -106 q-227 -227 -548 -227t-548 227q-123 123 -179 273h-248z" />
<glyph unicode="&#x2122;" horiz-adv-x="1650" d="M0 200v1100q0 200 200 200h1100q200 0 200 -200v-1100q0 -200 -200 -200h-1100q-200 0 -200 200zM25 200q1 -175 175 -175h1101q174 0 174 176v1099q0 175 -175 175h-1100q-174 0 -175 -175v-1100z" />
<glyph unicode="&#xe000;" horiz-adv-x="900" d="M0 0v900h900v-900h-900z" />
</font>
</defs>
</svg>
